<?xml version="1.0" encoding="UTF-8"?>
<svg width="100%" height="100%" viewBox="0 0 800 800" xmlns="http://www.w3.org/2000/svg" xmlns:xlink="http://www.w3.org/1999/xlink">
  <defs>
    <style>
      @import url('https://fonts.googleapis.com/css2?family=Poppins:wght@300;700&amp;display=swap');
    </style>
    <!-- Gradiente para el fondo de espiral -->
    <linearGradient x1="50%" y1="0%" x2="50%" y2="100%" id="cccoil-grad">
      <stop stop-color="hsl(206, 76%, 52%)" stop-opacity="1" offset="0%"></stop>
      <stop stop-color="hsl(14, 50%, 29%)" stop-opacity="1" offset="100%"></stop>
    </linearGradient>

    <!-- Gradientes más transparentes con variantes oscuras y profundas -->
    <linearGradient id="glass-gradient-0" x1="0%" y1="0%" x2="100%" y2="0%">
      <stop offset="0%" stop-color="rgba(40, 90, 130, 0.25)" /> <stop offset="15%" stop-color="rgba(110, 70, 50, 0.22)" /> <stop offset="30%" stop-color="rgba(160, 100, 50, 0.2)" /> <stop offset="45%" stop-color="rgba(90, 60, 50, 0.22)" /> <stop offset="60%" stop-color="rgba(50, 100, 150, 0.25)" /> <stop offset="75%" stop-color="rgba(130, 90, 60, 0.22)" /> <stop offset="90%" stop-color="rgba(70, 50, 40, 0.25)" /> <stop offset="100%" stop-color="rgba(30, 100, 160, 0.28)" />
    </linearGradient>
    <linearGradient id="glass-gradient-1" x1="0%" y1="0%" x2="100%" y2="100%">
      <stop offset="0%" stop-color="rgba(40, 90, 130, 0.25)" /> <stop offset="15%" stop-color="rgba(110, 70, 50, 0.22)" /> <stop offset="30%" stop-color="rgba(160, 100, 50, 0.2)" /> <stop offset="45%" stop-color="rgba(90, 60, 50, 0.22)" /> <stop offset="60%" stop-color="rgba(50, 100, 150, 0.25)" /> <stop offset="75%" stop-color="rgba(130, 90, 60, 0.22)" /> <stop offset="90%" stop-color="rgba(70, 50, 40, 0.25)" /> <stop offset="100%" stop-color="rgba(30, 100, 160, 0.28)" />
    </linearGradient>
    <linearGradient id="glass-gradient-2" x1="0%" y1="100%" x2="0%" y2="0%">
      <stop offset="0%" stop-color="rgba(40, 90, 130, 0.25)" /> <stop offset="15%" stop-color="rgba(110, 70, 50, 0.22)" /> <stop offset="30%" stop-color="rgba(160, 100, 50, 0.2)" /> <stop offset="45%" stop-color="rgba(90, 60, 50, 0.22)" /> <stop offset="60%" stop-color="rgba(50, 100, 150, 0.25)" /> <stop offset="75%" stop-color="rgba(130, 90, 60, 0.22)" /> <stop offset="90%" stop-color="rgba(70, 50, 40, 0.25)" /> <stop offset="100%" stop-color="rgba(30, 100, 160, 0.28)" />
    </linearGradient>
    <linearGradient id="glass-gradient-3" x1="100%" y1="100%" x2="0%" y2="0%">
      <stop offset="0%" stop-color="rgba(40, 90, 130, 0.25)" /> <stop offset="15%" stop-color="rgba(110, 70, 50, 0.22)" /> <stop offset="30%" stop-color="rgba(160, 100, 50, 0.2)" /> <stop offset="45%" stop-color="rgba(90, 60, 50, 0.22)" /> <stop offset="60%" stop-color="rgba(50, 100, 150, 0.25)" /> <stop offset="75%" stop-color="rgba(130, 90, 60, 0.22)" /> <stop offset="90%" stop-color="rgba(70, 50, 40, 0.25)" /> <stop offset="100%" stop-color="rgba(30, 100, 160, 0.28)" />
    </linearGradient>
    <linearGradient id="glass-gradient-4" x1="100%" y1="0%" x2="0%" y2="0%">
      <stop offset="0%" stop-color="rgba(40, 90, 130, 0.25)" /> <stop offset="15%" stop-color="rgba(110, 70, 50, 0.22)" /> <stop offset="30%" stop-color="rgba(160, 100, 50, 0.2)" /> <stop offset="45%" stop-color="rgba(90, 60, 50, 0.22)" /> <stop offset="60%" stop-color="rgba(50, 100, 150, 0.25)" /> <stop offset="75%" stop-color="rgba(130, 90, 60, 0.22)" /> <stop offset="90%" stop-color="rgba(70, 50, 40, 0.25)" /> <stop offset="100%" stop-color="rgba(30, 100, 160, 0.28)" />
    </linearGradient>
    <linearGradient id="glass-gradient-5" x1="100%" y1="0%" x2="0%" y2="100%">
      <stop offset="0%" stop-color="rgba(40, 90, 130, 0.25)" /> <stop offset="15%" stop-color="rgba(110, 70, 50, 0.22)" /> <stop offset="30%" stop-color="rgba(160, 100, 50, 0.2)" /> <stop offset="45%" stop-color="rgba(90, 60, 50, 0.22)" /> <stop offset="60%" stop-color="rgba(50, 100, 150, 0.25)" /> <stop offset="75%" stop-color="rgba(130, 90, 60, 0.22)" /> <stop offset="90%" stop-color="rgba(70, 50, 40, 0.25)" /> <stop offset="100%" stop-color="rgba(30, 100, 160, 0.28)" />
    </linearGradient>
    <linearGradient id="glass-gradient-6" x1="0%" y1="100%" x2="100%" y2="0%">
      <stop offset="0%" stop-color="rgba(40, 90, 130, 0.25)" /> <stop offset="15%" stop-color="rgba(110, 70, 50, 0.22)" /> <stop offset="30%" stop-color="rgba(160, 100, 50, 0.2)" /> <stop offset="45%" stop-color="rgba(90, 60, 50, 0.22)" /> <stop offset="60%" stop-color="rgba(50, 100, 150, 0.25)" /> <stop offset="75%" stop-color="rgba(130, 90, 60, 0.22)" /> <stop offset="90%" stop-color="rgba(70, 50, 40, 0.25)" /> <stop offset="100%" stop-color="rgba(30, 100, 160, 0.28)" />
    </linearGradient>
    <linearGradient id="glass-gradient-7" x1="0%" y1="0%" x2="0%" y2="100%">
      <stop offset="0%" stop-color="rgba(40, 90, 130, 0.25)" /> <stop offset="15%" stop-color="rgba(110, 70, 50, 0.22)" /> <stop offset="30%" stop-color="rgba(160, 100, 50, 0.2)" /> <stop offset="45%" stop-color="rgba(90, 60, 50, 0.22)" /> <stop offset="60%" stop-color="rgba(50, 100, 150, 0.25)" /> <stop offset="75%" stop-color="rgba(130, 90, 60, 0.22)" /> <stop offset="90%" stop-color="rgba(70, 50, 40, 0.25)" /> <stop offset="100%" stop-color="rgba(30, 100, 160, 0.28)" />
    </linearGradient>

    <linearGradient id="glass-gradient-light" x1="0%" y1="0%" x2="0%" y2="100%">
      <stop offset="0%" stop-color="rgba(100, 140, 180, 0.2)" /> <stop offset="25%" stop-color="rgba(130, 100, 80, 0.18)" /> <stop offset="50%" stop-color="rgba(170, 130, 100, 0.15)" /> <stop offset="75%" stop-color="rgba(110, 140, 170, 0.18)" /> <stop offset="100%" stop-color="rgba(100, 140, 180, 0.2)" />
    </linearGradient>
  </defs>

  <!-- Fondo oscuro sólido de grafito carbón -->
  <rect width="100%" height="100%" fill="#141618" />

  <!-- Espiral de fondo con opacidad reducida -->
  <g stroke="url(#cccoil-grad)" fill="none" stroke-linecap="round">
    <circle r="495" cx="400" cy="400" stroke-width="1.5" stroke-dasharray="3110 3110" transform="rotate(360, 400, 400)" opacity="0.02"></circle><circle r="486" cx="400" cy="400" stroke-width="1.5" stroke-dasharray="2997 3054" transform="rotate(353, 400, 400)" opacity="0.03"></circle><circle r="477" cx="400" cy="400" stroke-width="1.5" stroke-dasharray="2886 2997" transform="rotate(347, 400, 400)" opacity="0.04"></circle><circle r="468" cx="400" cy="400" stroke-width="1.5" stroke-dasharray="2777 2941" transform="rotate(340, 400, 400)" opacity="0.05"></circle><circle r="459" cx="400" cy="400" stroke-width="1.5" stroke-dasharray="2670 2884" transform="rotate(333, 400, 400)" opacity="0.06"></circle><circle r="450" cx="400" cy="400" stroke-width="1.5" stroke-dasharray="2566 2827" transform="rotate(327, 400, 400)" opacity="0.07"></circle><circle r="441" cx="400" cy="400" stroke-width="1.5" stroke-dasharray="2463 2771" transform="rotate(320, 400, 400)" opacity="0.08"></circle><circle r="432" cx="400" cy="400" stroke-width="1.5" stroke-dasharray="2362 2714" transform="rotate(313, 400, 400)" opacity="0.08"></circle><circle r="423" cx="400" cy="400" stroke-width="1.5" stroke-dasharray="2264 2658" transform="rotate(307, 400, 400)" opacity="0.09"></circle><circle r="414" cx="400" cy="400" stroke-width="1.5" stroke-dasharray="2168 2601" transform="rotate(300, 400, 400)" opacity="0.10"></circle><circle r="405" cx="400" cy="400" stroke-width="1.5" stroke-dasharray="2073 2545" transform="rotate(293, 400, 400)" opacity="0.11"></circle><circle r="396" cx="400" cy="400" stroke-width="1.5" stroke-dasharray="1981 2488" transform="rotate(287, 400, 400)" opacity="0.12"></circle><circle r="387" cx="400" cy="400" stroke-width="1.5" stroke-dasharray="1891 2432" transform="rotate(280, 400, 400)" opacity="0.13"></circle><circle r="378" cx="400" cy="400" stroke-width="1.5" stroke-dasharray="1803 2375" transform="rotate(273, 400, 400)" opacity="0.14"></circle><circle r="369" cx="400" cy="400" stroke-width="1.5" stroke-dasharray="1717 2318" transform="rotate(267, 400, 400)" opacity="0.15"></circle><circle r="360" cx="400" cy="400" stroke-width="1.5" stroke-dasharray="1634 2262" transform="rotate(260, 400, 400)" opacity="0.15"></circle><circle r="351" cx="400" cy="400" stroke-width="1.5" stroke-dasharray="1552 2205" transform="rotate(253, 400, 400)" opacity="0.16"></circle><circle r="342" cx="400" cy="400" stroke-width="1.5" stroke-dasharray="1472 2149" transform="rotate(247, 400, 400)" opacity="0.17"></circle><circle r="333" cx="400" cy="400" stroke-width="1.5" stroke-dasharray="1395 2092" transform="rotate(240, 400, 400)" opacity="0.18"></circle><circle r="324" cx="400" cy="400" stroke-width="1.5" stroke-dasharray="1319 2036" transform="rotate(233, 400, 400)" opacity="0.19"></circle><circle r="315" cx="400" cy="400" stroke-width="1.5" stroke-dasharray="1246 1979" transform="rotate(227, 400, 400)" opacity="0.20"></circle><circle r="306" cx="400" cy="400" stroke-width="1.5" stroke-dasharray="1175 1923" transform="rotate(220, 400, 400)" opacity="0.21"></circle><circle r="297" cx="400" cy="400" stroke-width="1.5" stroke-dasharray="1106 1866" transform="rotate(213, 400, 400)" opacity="0.22"></circle><circle r="288" cx="400" cy="400" stroke-width="1.5" stroke-dasharray="1039 1810" transform="rotate(207, 400, 400)" opacity="0.22"></circle><circle r="279" cx="400" cy="400" stroke-width="1.5" stroke-dasharray="974 1753" transform="rotate(200, 400, 400)" opacity="0.23"></circle><circle r="270" cx="400" cy="400" stroke-width="1.5" stroke-dasharray="911 1696" transform="rotate(193, 400, 400)" opacity="0.24"></circle><circle r="261" cx="400" cy="400" stroke-width="1.5" stroke-dasharray="850 1640" transform="rotate(187, 400, 400)" opacity="0.25"></circle><circle r="252" cx="400" cy="400" stroke-width="1.5" stroke-dasharray="792 1583" transform="rotate(180, 400, 400)" opacity="0.26"></circle><circle r="243" cx="400" cy="400" stroke-width="1.5" stroke-dasharray="735 1527" transform="rotate(173, 400, 400)" opacity="0.27"></circle><circle r="234" cx="400" cy="400" stroke-width="1.5" stroke-dasharray="681 1470" transform="rotate(167, 400, 400)" opacity="0.28"></circle><circle r="225" cx="400" cy="400" stroke-width="1.5" stroke-dasharray="628 1414" transform="rotate(160, 400, 400)" opacity="0.29"></circle><circle r="216" cx="400" cy="400" stroke-width="1.5" stroke-dasharray="578 1357" transform="rotate(153, 400, 400)" opacity="0.30"></circle><circle r="207" cx="400" cy="400" stroke-width="1.5" stroke-dasharray="530 1301" transform="rotate(147, 400, 400)" opacity="0.30"></circle><circle r="198" cx="400" cy="400" stroke-width="1.5" stroke-dasharray="484 1244" transform="rotate(140, 400, 400)" opacity="0.31"></circle><circle r="189" cx="400" cy="400" stroke-width="1.5" stroke-dasharray="440 1188" transform="rotate(133, 400, 400)" opacity="0.32"></circle><circle r="180" cx="400" cy="400" stroke-width="1.5" stroke-dasharray="398 1131" transform="rotate(127, 400, 400)" opacity="0.33"></circle><circle r="171" cx="400" cy="400" stroke-width="1.5" stroke-dasharray="358 1074" transform="rotate(120, 400, 400)" opacity="0.34"></circle><circle r="162" cx="400" cy="400" stroke-width="1.5" stroke-dasharray="320 1018" transform="rotate(113, 400, 400)" opacity="0.35"></circle><circle r="153" cx="400" cy="400" stroke-width="1.5" stroke-dasharray="285 961" transform="rotate(107, 400, 400)" opacity="0.36"></circle><circle r="144" cx="400" cy="400" stroke-width="1.5" stroke-dasharray="251 905" transform="rotate(100, 400, 400)" opacity="0.37"></circle><circle r="135" cx="400" cy="400" stroke-width="1.5" stroke-dasharray="220 848" transform="rotate(93, 400, 400)" opacity="0.37"></circle><circle r="126" cx="400" cy="400" stroke-width="1.5" stroke-dasharray="191 792" transform="rotate(87, 400, 400)" opacity="0.38"></circle><circle r="117" cx="400" cy="400" stroke-width="1.5" stroke-dasharray="163 735" transform="rotate(80, 400, 400)" opacity="0.39"></circle><circle r="108" cx="400" cy="400" stroke-width="1.5" stroke-dasharray="138 679" transform="rotate(73, 400, 400)" opacity="0.40"></circle><circle r="99" cx="400" cy="400" stroke-width="1.5" stroke-dasharray="115 622" transform="rotate(67, 400, 400)" opacity="0.41"></circle><circle r="90" cx="400" cy="400" stroke-width="1.5" stroke-dasharray="94 565" transform="rotate(60, 400, 400)" opacity="0.42"></circle><circle r="81" cx="400" cy="400" stroke-width="1.5" stroke-dasharray="75 509" transform="rotate(53, 400, 400)" opacity="0.43"></circle><circle r="72" cx="400" cy="400" stroke-width="1.5" stroke-dasharray="59 452" transform="rotate(47, 400, 400)" opacity="0.44"></circle><circle r="63" cx="400" cy="400" stroke-width="1.5" stroke-dasharray="44 396" transform="rotate(40, 400, 400)" opacity="0.44"></circle><circle r="54" cx="400" cy="400" stroke-width="1.5" stroke-dasharray="31 339" transform="rotate(33, 400, 400)" opacity="0.45"></circle><circle r="45" cx="400" cy="400" stroke-width="1.5" stroke-dasharray="21 283" transform="rotate(27, 400, 400)" opacity="0.46"></circle><circle r="36" cx="400" cy="400" stroke-width="1.5" stroke-dasharray="13 226" transform="rotate(20, 400, 400)" opacity="0.47"></circle><circle r="27" cx="400" cy="400" stroke-width="1.5" stroke-dasharray="6 170" transform="rotate(13, 400, 400)" opacity="0.48"></circle><circle r="18" cx="400" cy="400" stroke-width="1.5" stroke-dasharray="2 113" transform="rotate(7, 400, 400)" opacity="0.49"></circle><circle r="9" cx="400" cy="400" stroke-width="1.5" stroke-dasharray="0 57" opacity="0.50"></circle>
  </g>

  <!-- Texto con relleno de gradiente (sin bordes) -->
  <g transform="translate(455, 358)">
    <text x="0" y="0" font-family="'Poppins', sans-serif" font-size="20" font-weight="0" text-anchor="middle" letter-spacing="1">
      <tspan fill="url(#glass-gradient-0)">>nviro Agent</tspan>
    </text>
    <text x="0" y="30" font-family="'Poppins', sans-serif" font-size="18" font-weight="20"
          text-anchor="middle" fill="url(#glass-gradient-light)">
    </text>
  </g>
</svg>
